# Blender 4.1.1
# www.blender.org
mtllib Ejercicio_Clase-1.mtl
o Cube.001
v 1.000000 1.000000 4.000000
v 0.000000 -2.000000 3.210000
v 1.000000 -1.000000 4.000000
v 0.000000 2.000000 3.210000
v 1.000000 1.000000 6.000000
v 0.195090 -2.000000 3.225179
v 0.195090 2.000000 3.225179
v 1.000000 -1.000000 6.000000
v -1.000000 1.000000 4.000000
v 0.382683 -2.000000 3.270135
v 0.382683 2.000000 3.270135
v -1.000000 -1.000000 4.000000
v -1.000000 1.000000 6.000000
v 0.555570 -2.000000 3.343139
v 0.555570 2.000000 3.343139
v -1.000000 -1.000000 6.000000
v 0.707107 -2.000000 3.441386
v 0.707107 2.000000 3.441386
v 0.831470 -2.000000 3.561100
v 0.831470 2.000000 3.561100
v 0.923880 -2.000000 3.697680
v 0.923880 2.000000 3.697680
v 0.980785 -2.000000 3.845879
v 0.980785 2.000000 3.845879
v 1.000000 -2.000000 4.000000
v 1.000000 2.000000 4.000000
v 0.980785 -2.000000 4.154121
v 0.980785 2.000000 4.154121
v 0.923880 -2.000000 4.302320
v 0.923880 2.000000 4.302320
v 0.831470 -2.000000 4.438900
v 0.831470 2.000000 4.438900
v 0.707107 -2.000000 4.558615
v 0.707107 2.000000 4.558615
v 0.555570 -2.000000 4.656861
v 0.555570 2.000000 4.656861
v 0.382683 -2.000000 4.729865
v 0.382683 2.000000 4.729865
v 0.195090 -2.000000 4.774820
v 0.195090 2.000000 4.774820
v 0.000000 -2.000000 4.790000
v 0.000000 2.000000 4.790000
v -0.195090 -2.000000 4.774820
v -0.195090 2.000000 4.774820
v -0.382683 -2.000000 4.729865
v -0.382683 2.000000 4.729865
v -0.555570 -2.000000 4.656861
v -0.555570 2.000000 4.656861
v -0.707107 -2.000000 4.558615
v -0.707107 2.000000 4.558615
v -0.831470 -2.000000 4.438900
v -0.831470 2.000000 4.438900
v -0.923880 -2.000000 4.302320
v -0.923880 2.000000 4.302320
v -0.980785 -2.000000 4.154121
v -0.980785 2.000000 4.154121
v -1.000000 -2.000000 4.000000
v -1.000000 2.000000 4.000000
v -0.980785 -2.000000 3.845879
v -0.980785 2.000000 3.845879
v -0.923880 -2.000000 3.697680
v -0.923880 2.000000 3.697680
v -0.831470 -2.000000 3.561100
v -0.831470 2.000000 3.561100
v -0.707107 -2.000000 3.441386
v -0.707107 2.000000 3.441386
v -0.555570 -2.000000 3.343139
v -0.555570 2.000000 3.343139
v -0.382683 -2.000000 3.270135
v -0.382683 2.000000 3.270135
v -0.195090 -2.000000 3.225179
v -0.195090 2.000000 3.225179
v -0.980785 1.000000 4.154121
v -0.707107 1.000000 4.558615
v -0.831470 1.000000 4.438900
v -0.923880 1.000000 4.302320
v -0.382683 1.000000 4.729865
v 0.000000 1.000000 4.790000
v 0.195090 1.000000 4.774820
v -0.195090 1.000000 4.774820
v -0.555570 1.000000 4.656861
v 0.555570 1.000000 4.656861
v 0.382683 1.000000 4.729865
v 0.831470 1.000000 4.438900
v 0.980785 1.000000 4.154121
v 0.923880 1.000000 4.302320
v 0.707107 1.000000 4.558615
v -0.195090 -1.000000 4.774820
v 0.195090 -1.000000 4.774820
v 0.382683 -1.000000 4.729865
v 0.000000 -1.000000 4.790000
v 0.831470 -1.000000 4.438900
v 0.707107 -1.000000 4.558615
v 0.923880 -1.000000 4.302320
v 0.980785 -1.000000 4.154121
v 0.555570 -1.000000 4.656861
v -0.980785 -1.000000 4.154121
v -0.923880 -1.000000 4.302320
v -0.831470 -1.000000 4.438900
v -0.707107 -1.000000 4.558615
v -0.382683 -1.000000 4.729865
v -0.555570 -1.000000 4.656861
vn -0.0000 1.0000 -0.0000
vn -0.0000 -0.0000 1.0000
vn -1.0000 -0.0000 -0.0000
vn -0.0000 -1.0000 -0.0000
vn 1.0000 -0.0000 -0.0000
vn 0.0776 -0.0000 -0.9970
vn 0.2330 -0.0000 -0.9725
vn 0.3890 -0.0000 -0.9212
vn 0.5440 -0.0000 -0.8391
vn 0.6935 -0.0000 -0.7204
vn 0.8282 -0.0000 -0.5604
vn 0.9335 -0.0000 -0.3585
vn 0.9923 -0.0000 -0.1237
vn 0.9923 -0.0000 0.1237
vn 0.9335 -0.0000 0.3585
vn 0.8282 -0.0000 0.5604
vn 0.6935 -0.0000 0.7204
vn 0.5440 -0.0000 0.8391
vn 0.3890 -0.0000 0.9212
vn 0.2330 -0.0000 0.9725
vn 0.0776 -0.0000 0.9970
vn -0.0776 -0.0000 0.9970
vn -0.2330 -0.0000 0.9725
vn -0.3890 -0.0000 0.9212
vn -0.5440 -0.0000 0.8391
vn -0.6935 -0.0000 0.7204
vn -0.8282 -0.0000 0.5604
vn -0.9335 -0.0000 0.3585
vn -0.9923 -0.0000 0.1237
vn -0.9923 -0.0000 -0.1237
vn -0.9335 -0.0000 -0.3585
vn -0.8282 -0.0000 -0.5604
vn -0.6935 -0.0000 -0.7204
vn -0.5440 -0.0000 -0.8391
vn -0.3890 -0.0000 -0.9212
vn -0.2330 -0.0000 -0.9725
vn -0.0776 -0.0000 -0.9970
vt 0.875000 0.500000
vt 0.875000 0.750000
vt 0.625000 0.750000
vt 0.625000 0.500000
vt 0.627402 0.519265
vt 0.634515 0.537790
vt 0.646066 0.554863
vt 0.661612 0.569827
vt 0.680554 0.582108
vt 0.702165 0.591233
vt 0.725614 0.596853
vt 0.750000 0.598750
vt 0.774386 0.596853
vt 0.797835 0.591233
vt 0.819446 0.582108
vt 0.838388 0.569827
vt 0.853934 0.554863
vt 0.865485 0.537790
vt 0.872598 0.519265
vt 0.375000 0.750000
vt 0.625000 1.000000
vt 0.375000 1.000000
vt 0.375000 0.000000
vt 0.625000 0.000000
vt 0.625000 0.250000
vt 0.375000 0.250000
vt 0.375000 0.500000
vt 0.125000 0.750000
vt 0.125000 0.500000
vt 0.127402 0.519265
vt 0.134515 0.537790
vt 0.146066 0.554863
vt 0.161612 0.569827
vt 0.180554 0.582108
vt 0.202165 0.591233
vt 0.225614 0.596853
vt 0.250000 0.598750
vt 0.274386 0.596853
vt 0.297835 0.591233
vt 0.319446 0.582108
vt 0.338388 0.569827
vt 0.353934 0.554863
vt 0.365485 0.537790
vt 0.372598 0.519265
vt 0.000000 0.000000
s 0
usemtl Material.001
f 9/1/1 13/2/1 5/3/1 1/4/1 85/5/1 86/6/1 84/7/1 87/8/1 82/9/1 83/10/1 79/11/1 78/12/1 80/13/1 77/14/1 81/15/1 74/16/1 75/17/1 76/18/1 73/19/1
f 8/20/2 5/3/2 13/21/2 16/22/2
f 16/23/3 13/24/3 9/25/3 12/26/3
f 3/27/4 8/20/4 16/28/4 12/29/4 97/30/4 98/31/4 99/32/4 100/33/4 102/34/4 101/35/4 88/36/4 91/37/4 89/38/4 90/39/4 96/40/4 93/41/4 92/42/4 94/43/4 95/44/4
f 3/27/5 1/4/5 5/3/5 8/20/5
f 2/45/6 4/45/6 7/45/6 6/45/6
f 6/45/7 7/45/7 11/45/7 10/45/7
f 10/45/8 11/45/8 15/45/8 14/45/8
f 14/45/9 15/45/9 18/45/9 17/45/9
f 17/45/10 18/45/10 20/45/10 19/45/10
f 19/45/11 20/45/11 22/45/11 21/45/11
f 21/45/12 22/45/12 24/45/12 23/45/12
f 26/45/13 1/45/13 3/45/13 25/45/13 23/45/13 24/45/13
f 1/45/14 26/45/14 28/45/14 85/45/14
f 95/45/14 27/45/14 25/45/14 3/45/14
f 85/45/15 28/45/15 30/45/15 86/45/15
f 94/45/15 29/45/15 27/45/15 95/45/15
f 86/45/16 30/45/16 32/45/16 84/45/16
f 92/45/16 31/45/16 29/45/16 94/45/16
f 84/45/17 32/45/17 34/45/17 87/45/17
f 93/45/17 33/45/17 31/45/17 92/45/17
f 87/45/18 34/45/18 36/45/18 82/45/18
f 96/45/18 35/45/18 33/45/18 93/45/18
f 82/45/19 36/45/19 38/45/19 83/45/19
f 90/45/19 37/45/19 35/45/19 96/45/19
f 83/45/20 38/45/20 40/45/20 79/45/20
f 89/45/20 39/45/20 37/45/20 90/45/20
f 79/45/21 40/45/21 42/45/21 78/45/21
f 91/45/21 41/45/21 39/45/21 89/45/21
f 78/45/22 42/45/22 44/45/22 80/45/22
f 88/45/22 43/45/22 41/45/22 91/45/22
f 80/45/23 44/45/23 46/45/23 77/45/23
f 101/45/23 45/45/23 43/45/23 88/45/23
f 77/45/24 46/45/24 48/45/24 81/45/24
f 102/45/24 47/45/24 45/45/24 101/45/24
f 81/45/25 48/45/25 50/45/25 74/45/25
f 100/45/25 49/45/25 47/45/25 102/45/25
f 74/45/26 50/45/26 52/45/26 75/45/26
f 99/45/26 51/45/26 49/45/26 100/45/26
f 75/45/27 52/45/27 54/45/27 76/45/27
f 53/45/27 51/45/27 99/45/27 98/45/27
f 76/45/28 54/45/28 56/45/28 73/45/28
f 55/45/28 53/45/28 98/45/28 97/45/28
f 73/45/29 56/45/29 58/45/29 9/45/29
f 57/45/29 55/45/29 97/45/29 12/45/29
f 57/45/30 12/45/30 9/45/30 58/45/30 60/45/30 59/45/30
f 59/45/31 60/45/31 62/45/31 61/45/31
f 61/45/32 62/45/32 64/45/32 63/45/32
f 63/45/33 64/45/33 66/45/33 65/45/33
f 65/45/34 66/45/34 68/45/34 67/45/34
f 67/45/35 68/45/35 70/45/35 69/45/35
f 26/45/1 24/45/1 22/45/1 20/45/1 18/45/1 15/45/1 11/45/1 7/45/1 4/45/1 72/45/1 70/45/1 68/45/1 66/45/1 64/45/1 62/45/1 60/45/1 58/45/1 56/45/1 54/45/1 52/45/1 50/45/1 48/45/1 46/45/1 44/45/1 42/45/1 40/45/1 38/45/1 36/45/1 34/45/1 32/45/1 30/45/1 28/45/1
f 69/45/36 70/45/36 72/45/36 71/45/36
f 71/45/37 72/45/37 4/45/37 2/45/37
f 71/45/4 2/45/4 6/45/4 10/45/4 14/45/4 17/45/4 19/45/4 21/45/4 23/45/4 25/45/4 27/45/4 29/45/4 31/45/4 33/45/4 35/45/4 37/45/4 39/45/4 41/45/4 43/45/4 45/45/4 47/45/4 49/45/4 51/45/4 53/45/4 55/45/4 57/45/4 59/45/4 61/45/4 63/45/4 65/45/4 67/45/4 69/45/4
o Cubo
v -1.000000 -1.000000 -4.000000
v -1.000000 1.000000 -4.000000
v -1.000000 -1.000000 -6.000000
v -1.000000 1.000000 -6.000000
v 1.000000 -1.000000 -4.000000
v 1.000000 1.000000 -4.000000
v 1.000000 -1.000000 -6.000000
v 1.000000 1.000000 -6.000000
v -1.000000 1.000000 -5.000000
v -1.000000 -1.000000 -5.000000
v 1.000000 1.000000 -5.000000
v 1.000000 -1.000000 -5.000000
v -0.555570 -1.000000 -5.665175
v -0.195090 -1.000000 -5.784628
v -0.382683 -1.000000 -5.739104
v 0.000000 -1.000000 -5.800000
v 0.195090 -1.000000 -5.784628
v 0.555570 -1.000000 -5.665175
v 0.382683 -1.000000 -5.739104
v 0.831470 -1.000000 -4.555544
v 0.831470 -1.000000 -5.444456
v 0.980785 -1.000000 -4.843928
v 0.980785 -1.000000 -5.156072
v 0.923880 -1.000000 -5.306147
v 0.707107 -1.000000 -4.434315
v 0.923880 -1.000000 -4.693853
v 0.707107 -1.000000 -5.565685
v -0.980785 -1.000000 -4.843928
v -0.980785 -1.000000 -5.156072
v -0.831470 -1.000000 -4.555544
v -0.831470 -1.000000 -5.444456
v -0.707107 -1.000000 -4.434315
v -0.923880 -1.000000 -4.693853
v -0.923880 -1.000000 -5.306147
v -0.382683 -1.000000 -4.260896
v -0.555570 -1.000000 -4.334825
v 0.195090 -1.000000 -4.215372
v 0.000000 -1.000000 -4.200000
v 0.555570 -1.000000 -4.334825
v 0.382683 -1.000000 -4.260896
v -0.195090 -1.000000 -4.215372
v -0.707107 -1.000000 -5.565685
v -0.980785 1.000000 -5.156072
v -0.980785 1.000000 -4.843928
v -0.831470 1.000000 -4.555544
v -0.831470 1.000000 -5.444456
v -0.707107 1.000000 -4.434315
v -0.923880 1.000000 -4.693853
v -0.923880 1.000000 -5.306147
v -0.382683 1.000000 -5.739104
v -0.555570 1.000000 -5.665175
v 0.195090 1.000000 -5.784628
v 0.000000 1.000000 -5.800000
v 0.555570 1.000000 -5.665175
v 0.382683 1.000000 -5.739104
v -0.195090 1.000000 -5.784628
v -0.707107 1.000000 -5.565685
v -0.555570 1.000000 -4.334825
v -0.195090 1.000000 -4.215372
v 0.000000 1.000000 -4.200000
v -0.382683 1.000000 -4.260896
v 0.195090 1.000000 -4.215372
v 0.555570 1.000000 -4.334825
v 0.382683 1.000000 -4.260896
v 0.831470 1.000000 -4.555544
v 0.831470 1.000000 -5.444456
v 0.980785 1.000000 -4.843928
v 0.980785 1.000000 -5.156072
v 0.923880 1.000000 -5.306147
v 0.707107 1.000000 -4.434315
v 0.923880 1.000000 -4.693853
v 0.707107 1.000000 -5.565685
vn -1.0000 -0.0000 -0.0000
vn -0.0000 -0.0000 -1.0000
vn 1.0000 -0.0000 -0.0000
vn -0.0000 -0.0000 1.0000
vn -0.0000 -1.0000 -0.0000
vn -0.0000 1.0000 -0.0000
vn -0.0785 -0.0000 0.9969
vn -0.2358 -0.0000 0.9718
vn -0.3932 -0.0000 0.9195
vn -0.5488 -0.0000 0.8359
vn -0.6980 -0.0000 0.7161
vn -0.8315 -0.0000 0.5555
vn -0.9350 -0.0000 0.3546
vn -0.9925 -0.0000 0.1222
vn -0.9925 -0.0000 -0.1222
vn -0.9350 -0.0000 -0.3546
vn -0.8315 -0.0000 -0.5555
vn -0.6980 -0.0000 -0.7161
vn -0.5488 -0.0000 -0.8359
vn -0.3932 -0.0000 -0.9195
vn -0.2358 -0.0000 -0.9718
vn -0.0785 -0.0000 -0.9969
vn 0.0785 -0.0000 -0.9969
vn 0.2358 -0.0000 -0.9718
vn 0.3932 -0.0000 -0.9195
vn 0.5488 -0.0000 -0.8359
vn 0.6980 -0.0000 -0.7161
vn 0.8315 -0.0000 -0.5555
vn 0.9350 -0.0000 -0.3546
vn 0.9925 -0.0000 -0.1222
vn 0.9925 -0.0000 0.1222
vn 0.9350 -0.0000 0.3546
vn 0.8315 -0.0000 0.5555
vn 0.6980 -0.0000 0.7161
vn 0.5488 -0.0000 0.8359
vn 0.3932 -0.0000 0.9195
vn 0.2358 -0.0000 0.9718
vn 0.0785 -0.0000 0.9969
vt 0.625000 0.125000
vt 0.625000 0.250000
vt 0.375000 0.250000
vt 0.375000 0.125000
vt 0.375000 0.000000
vt 0.625000 0.000000
vt 0.625000 0.500000
vt 0.375000 0.500000
vt 0.625000 0.750000
vt 0.375000 0.750000
vt 0.375000 0.625000
vt 0.625000 0.625000
vt 0.625000 1.000000
vt 0.375000 1.000000
vt 0.125000 0.750000
vt 0.125000 0.625000
vt 0.127402 0.644509
vt 0.134515 0.663268
vt 0.146066 0.680557
vt 0.161612 0.695711
vt 0.180554 0.708147
vt 0.202165 0.717388
vt 0.225614 0.723079
vt 0.250000 0.725000
vt 0.274386 0.723079
vt 0.297835 0.717388
vt 0.319446 0.708147
vt 0.338388 0.695711
vt 0.353934 0.680557
vt 0.365485 0.663268
vt 0.372598 0.644509
vt 0.125000 0.500000
vt 0.372598 0.605491
vt 0.365485 0.586732
vt 0.353934 0.569443
vt 0.338388 0.554289
vt 0.319446 0.541853
vt 0.297835 0.532612
vt 0.274386 0.526921
vt 0.250000 0.525000
vt 0.225614 0.526921
vt 0.202165 0.532612
vt 0.180554 0.541853
vt 0.161612 0.554289
vt 0.146066 0.569443
vt 0.134515 0.586732
vt 0.127402 0.605491
vt 0.875000 0.625000
vt 0.875000 0.750000
vt 0.627402 0.644509
vt 0.634515 0.663268
vt 0.646066 0.680557
vt 0.661612 0.695711
vt 0.680554 0.708147
vt 0.702165 0.717388
vt 0.725614 0.723079
vt 0.750000 0.725000
vt 0.774386 0.723079
vt 0.797835 0.717388
vt 0.819446 0.708147
vt 0.838388 0.695711
vt 0.853934 0.680557
vt 0.865485 0.663268
vt 0.872598 0.644509
vt 0.875000 0.500000
vt 0.872598 0.605491
vt 0.865485 0.586732
vt 0.853934 0.569443
vt 0.838388 0.554289
vt 0.819446 0.541853
vt 0.797836 0.532612
vt 0.774386 0.526921
vt 0.750000 0.525000
vt 0.725614 0.526921
vt 0.702165 0.532612
vt 0.680554 0.541853
vt 0.661612 0.554289
vt 0.646066 0.569443
vt 0.634515 0.586732
vt 0.627402 0.605491
vt 1.000000 0.875000
vt 1.000000 0.625000
vt 0.968750 0.625000
vt 0.968750 0.875000
vt 0.937500 0.625000
vt 0.937500 0.875000
vt 0.906250 0.625000
vt 0.906250 0.875000
vt 0.875000 0.875000
vt 0.843750 0.625000
vt 0.843750 0.875000
vt 0.812500 0.625000
vt 0.812500 0.875000
vt 0.781250 0.625000
vt 0.781250 0.875000
vt 0.750000 0.875000
vt 0.750000 0.625000
vt 0.718750 0.625000
vt 0.718750 0.875000
vt 0.687500 0.625000
vt 0.687500 0.875000
vt 0.656250 0.625000
vt 0.656250 0.875000
vt 0.625000 0.875000
vt 0.593750 0.625000
vt 0.593750 0.875000
vt 0.562500 0.625000
vt 0.562500 0.875000
vt 0.531250 0.625000
vt 0.531250 0.875000
vt 0.500000 0.625000
vt 0.500000 0.875000
vt 0.468750 0.625000
vt 0.468750 0.875000
vt 0.437500 0.625000
vt 0.437500 0.875000
vt 0.406250 0.625000
vt 0.406250 0.875000
vt 0.375000 0.875000
vt 0.343750 0.625000
vt 0.343750 0.875000
vt 0.312500 0.625000
vt 0.312500 0.875000
vt 0.281250 0.625000
vt 0.281250 0.875000
vt 0.250000 0.625000
vt 0.250000 0.875000
vt 0.218750 0.625000
vt 0.218750 0.875000
vt 0.187500 0.625000
vt 0.187500 0.875000
vt 0.156250 0.625000
vt 0.156250 0.875000
vt 0.125000 0.875000
vt 0.093750 0.625000
vt 0.093750 0.875000
vt 0.062500 0.625000
vt 0.062500 0.875000
vt 0.031250 0.625000
vt 0.031250 0.875000
vt 0.000000 0.625000
vt 0.000000 0.875000
s 0
f 111/46/38 106/47/38 105/48/38 112/49/38
f 103/50/38 104/51/38 111/46/38 112/49/38
f 105/48/39 106/47/39 110/52/39 109/53/39
f 108/54/40 107/55/40 114/56/40 113/57/40
f 114/56/40 109/53/40 110/52/40 113/57/40
f 107/55/41 108/54/41 104/58/41 103/59/41
f 107/55/42 103/60/42 112/61/42 130/62/42 135/63/42 132/64/42 134/65/42 138/66/42 137/67/42 143/68/42 140/69/42 139/70/42 142/71/42 141/72/42 127/73/42 122/74/42 128/75/42 124/76/42 114/56/42
f 112/61/42 105/77/42 109/53/42 114/56/42 125/78/42 126/79/42 123/80/42 129/81/42 120/82/42 121/83/42 119/84/42 118/85/42 116/86/42 117/87/42 115/88/42 144/89/42 133/90/42 136/91/42 131/92/42
f 111/93/43 104/94/43 108/54/43 113/57/43 169/95/43 173/96/43 167/97/43 172/98/43 165/99/43 166/100/43 164/101/43 162/102/43 161/103/43 163/104/43 160/105/43 149/106/43 147/107/43 150/108/43 146/109/43
f 113/57/43 110/52/43 106/110/43 111/93/43 145/111/43 151/112/43 148/113/43 159/114/43 153/115/43 152/116/43 158/117/43 155/118/43 154/119/43 157/120/43 156/121/43 174/122/43 168/123/43 171/124/43 170/125/43
f 155/126/44 118/127/44 119/128/44 154/129/44
f 154/129/45 119/128/45 121/130/45 157/131/45
f 157/131/46 121/130/46 120/132/46 156/133/46
f 156/133/47 120/132/47 129/93/47 174/134/47
f 174/134/48 129/93/48 123/135/48 168/136/48
f 123/135/49 126/137/49 171/138/49 168/136/49
f 126/137/50 125/139/50 170/140/50 171/138/50
f 113/141/51 170/140/51 125/139/51 114/142/51
f 114/142/52 124/143/52 169/144/52 113/141/52
f 124/143/53 128/145/53 173/146/53 169/144/53
f 128/145/54 122/147/54 167/148/54 173/146/54
f 122/147/55 127/57/55 172/149/55 167/148/55
f 127/57/56 141/150/56 165/151/56 172/149/56
f 141/150/57 142/152/57 166/153/57 165/151/57
f 142/152/58 139/154/58 164/155/58 166/153/58
f 139/154/59 140/156/59 162/157/59 164/155/59
f 140/156/60 143/158/60 161/159/60 162/157/60
f 143/158/61 137/160/61 163/161/61 161/159/61
f 137/160/62 138/162/62 160/163/62 163/161/62
f 138/162/63 134/56/63 149/164/63 160/163/63
f 134/56/64 132/165/64 147/166/64 149/164/64
f 147/166/65 132/165/65 135/167/65 150/168/65
f 150/168/66 135/167/66 130/169/66 146/170/66
f 112/171/67 111/172/67 146/170/67 130/169/67
f 111/172/68 112/171/68 131/173/68 145/174/68
f 145/174/69 131/173/69 136/175/69 151/176/69
f 151/176/70 136/175/70 133/177/70 148/178/70
f 148/178/71 133/177/71 144/61/71 159/179/71
f 159/179/72 144/61/72 115/180/72 153/181/72
f 153/181/73 115/180/73 117/182/73 152/183/73
f 152/183/74 117/182/74 116/184/74 158/185/74
f 158/185/75 116/184/75 118/186/75 155/187/75
o Cubo.001
v 0.000000 1.000000 -0.800000
v 0.000000 1.000000 0.800000
v 0.000000 -1.000000 0.800000
v 0.000000 -1.000000 -0.800000
v 0.382683 -1.000000 -0.739104
v 0.707107 -1.000000 -0.565685
v 0.555570 -1.000000 -0.665176
v 0.923880 -1.000000 -0.306147
v 1.000000 -1.000000 0.000000
v 0.980785 -1.000000 -0.156072
v 0.831470 -1.000000 -0.444456
v 0.382683 -1.000000 0.739104
v 0.195090 -1.000000 0.784628
v 0.195090 -1.000000 -0.784628
v 0.831470 -1.000000 0.444456
v 0.707107 -1.000000 0.565685
v 0.923880 -1.000000 0.306147
v 0.980785 -1.000000 0.156072
v 0.555570 -1.000000 0.665176
v 0.382683 1.000000 -0.739104
v 0.195090 1.000000 0.784628
v 0.195090 1.000000 -0.784628
v 0.831470 1.000000 -0.444456
v 0.707107 1.000000 -0.565685
v 1.000000 1.000000 0.000000
v 0.980785 1.000000 -0.156072
v 0.923880 1.000000 -0.306147
v 0.555570 1.000000 -0.665176
v 0.382683 1.000000 0.739104
v 0.707107 1.000000 0.565685
v 0.555570 1.000000 0.665176
v 0.923880 1.000000 0.306147
v 0.980785 1.000000 0.156072
v 0.831470 1.000000 0.444456
vn -1.0000 -0.0000 -0.0000
vn -0.0000 -1.0000 -0.0000
vn -0.0000 1.0000 -0.0000
vn 0.0785 -0.0000 -0.9969
vn 0.2358 -0.0000 -0.9718
vn 0.3932 -0.0000 -0.9195
vn 0.5488 -0.0000 -0.8359
vn 0.6980 -0.0000 -0.7161
vn 0.8315 -0.0000 -0.5555
vn 0.9350 -0.0000 -0.3546
vn 0.9925 -0.0000 -0.1222
vn 0.9925 -0.0000 0.1222
vn 0.9350 -0.0000 0.3546
vn 0.8315 -0.0000 0.5555
vn 0.6980 -0.0000 0.7161
vn 0.5488 -0.0000 0.8359
vn 0.3932 -0.0000 0.9195
vn 0.2358 -0.0000 0.9718
vn 0.0785 -0.0000 0.9969
vt 0.625000 0.025000
vt 0.625000 0.225000
vt 0.375000 0.225000
vt 0.375000 0.025000
vt 0.240485 0.663268
vt 0.228934 0.680557
vt 0.213388 0.695711
vt 0.194446 0.708147
vt 0.172835 0.717388
vt 0.149386 0.723079
vt 0.125000 0.725000
vt 0.125000 0.525000
vt 0.149386 0.526922
vt 0.172835 0.532612
vt 0.194446 0.541853
vt 0.213388 0.554289
vt 0.228934 0.569443
vt 0.240485 0.586732
vt 0.247598 0.605491
vt 0.250000 0.625000
vt 0.247598 0.644509
vt 0.759515 0.586732
vt 0.771066 0.569443
vt 0.786612 0.554289
vt 0.805554 0.541853
vt 0.827165 0.532612
vt 0.850614 0.526922
vt 0.875000 0.525000
vt 0.875000 0.725000
vt 0.850614 0.723079
vt 0.827165 0.717388
vt 0.805554 0.708147
vt 0.786612 0.695711
vt 0.771066 0.680557
vt 0.759515 0.663268
vt 0.752402 0.644509
vt 0.750000 0.625000
vt 0.752402 0.605491
vt 1.000000 0.875000
vt 0.968750 0.875000
vt 0.968750 0.625000
vt 1.000000 0.625000
vt 0.937500 0.625000
vt 0.937500 0.875000
vt 0.906250 0.625000
vt 0.906250 0.875000
vt 0.875000 0.625000
vt 0.875000 0.875000
vt 0.843750 0.625000
vt 0.843750 0.875000
vt 0.812500 0.875000
vt 0.812500 0.625000
vt 0.781250 0.875000
vt 0.781250 0.625000
vt 0.750000 0.875000
vt 0.718750 0.875000
vt 0.718750 0.625000
vt 0.687500 0.875000
vt 0.687500 0.625000
vt 0.656250 0.875000
vt 0.656250 0.625000
vt 0.625000 0.875000
vt 0.625000 0.625000
vt 0.593750 0.875000
vt 0.593750 0.625000
vt 0.562500 0.875000
vt 0.562500 0.625000
vt 0.531250 0.875000
vt 0.531250 0.625000
vt 0.500000 0.875000
vt 0.500000 0.625000
s 0
f 176/188/76 175/189/76 178/190/76 177/191/76
f 191/192/77 189/193/77 190/194/77 193/195/77 186/196/77 187/197/77 177/198/77 178/199/77 188/200/77 179/201/77 181/202/77 180/203/77 185/204/77 182/205/77 184/206/77 183/207/77 192/208/77
f 201/209/78 197/210/78 198/211/78 202/212/78 194/213/78 196/214/78 175/215/78 176/216/78 195/217/78 203/218/78 205/219/78 204/220/78 208/221/78 206/222/78 207/223/78 199/224/78 200/225/78
f 175/226/79 196/227/79 188/228/79 178/229/79
f 179/230/80 188/228/80 196/227/80 194/231/80
f 181/232/81 179/230/81 194/231/81 202/233/81
f 180/234/82 181/232/82 202/233/82 198/235/82
f 185/236/83 180/234/83 198/235/83 197/237/83
f 201/238/84 182/239/84 185/236/84 197/237/84
f 200/240/85 184/241/85 182/239/85 201/238/85
f 199/242/86 183/224/86 184/241/86 200/240/86
f 207/243/87 192/244/87 183/224/87 199/242/87
f 206/245/88 191/246/88 192/244/88 207/243/88
f 208/247/89 189/248/89 191/246/89 206/245/89
f 204/249/90 190/250/90 189/248/90 208/247/90
f 205/251/91 193/252/91 190/250/91 204/249/91
f 203/253/92 186/254/92 193/252/92 205/251/92
f 195/255/93 187/256/93 186/254/93 203/253/93
f 176/257/94 177/258/94 187/256/94 195/255/94
